#N canvas 1236 539 1202 975 36;
#X obj 291 77 r \$1-osc;
#X obj 291 125 list split 1;
#X obj 322 513 mtof;
#X floatatom 322 624 5 0 0 0 - - - 0;
#X obj 322 671 osc~;
#X obj 321 813 dac~;
#X obj 712 707 vline~;
#X msg 713 632 stop;
#X obj 321 747 *~;
#X obj 358 371 f;
#X obj 78 250 tgl 43 0 empty empty empty 0 -22 0 36 #fcfcfc #000000 #000000 0 1;
#X obj 358 441 select 0;
#X msg 794 484 1 1 5;
#X msg 646 484 0 50;
#X obj 75 132 loadbang;
#X msg 75 180 1;
#X obj 78 328 metro 50;
#X connect 0 0 1 0;
#X connect 1 0 2 0;
#X connect 1 1 9 1;
#X connect 2 0 3 0;
#X connect 3 0 4 0;
#X connect 4 0 8 0;
#X connect 6 0 8 1;
#X connect 7 0 6 0;
#X connect 8 0 5 0;
#X connect 8 0 5 1;
#X connect 9 0 11 0;
#X connect 10 0 16 0;
#X connect 11 0 13 0;
#X connect 11 1 12 0;
#X connect 12 0 6 0;
#X connect 13 0 6 0;
#X connect 14 0 15 0;
#X connect 15 0 10 0;
#X connect 16 0 9 0;
