#N canvas 121 49 1529 1303 36;
#X obj 746 505 pack s f f;
#X msg 676 747 \; pd-keys loadbang;
#X msg 875 889 \; pd-keys clear;
#X obj 559 18 bng 43 250 50 0 empty empty empty 0 -22 0 36 #fcfcfc #000000 #000000;
#X obj 822 430 * 40;
#X obj 682 -2 loadbang;
#X obj 747 128 osc_range \$1 \$2;
#X obj 747 325 symbol \$3;
#X obj 747 250 t b f f;
#X obj 821 -125 s synth;
#X obj 942 195 r synth;
#X msg 1130 104 \; pd dsp 1 \;;
#X obj 682 61 t b b b b;
#X text 889 850 clear subpatch;
#X obj 560 -199 unpack 0 0 s;
#X obj 560 -134 t b f;
#X obj 560 -287 r in;
#X text 689 710 do loadbang in subpatches;
#X obj 28 100 cnv 43 600 700 empty empty empty 20 12 0 36 #c6feff #404040 0;
#X obj 84 278 notein;
#X floatatom 84 326 5 0 0 0 - - - 0;
#X floatatom 323 397 5 0 0 0 - - - 0;
#X floatatom 213 329 5 0 0 0 - - - 0;
#X obj 84 469 list append;
#X msg 84 558 \; \$1-osc \$1 \$2;
#N canvas 0 0 450 300 keys 0;
#X restore 78 679 pd keys;
#X text 80 162 receive midi data...;
#X text 78 197 ...and send to pd keys;
#X obj 747 187 select 0;
#X msg 746 572 \; pd-keys obj 10 \$2 \$1 \$3 \;;
#X connect 0 0 29 0;
#X connect 3 0 12 0;
#X connect 4 0 0 1;
#X connect 5 0 12 0;
#X connect 6 0 28 0;
#X connect 7 0 0 0;
#X connect 8 0 7 0;
#X connect 8 1 4 0;
#X connect 8 2 0 2;
#X connect 10 0 7 1;
#X connect 12 0 1 0;
#X connect 12 1 6 0;
#X connect 12 2 11 0;
#X connect 12 3 2 0;
#X connect 14 0 15 0;
#X connect 14 1 6 2;
#X connect 14 2 9 0;
#X connect 15 0 3 0;
#X connect 15 1 6 1;
#X connect 16 0 14 0;
#X connect 19 0 20 0;
#X connect 19 1 21 0;
#X connect 19 2 22 0;
#X connect 20 0 23 0;
#X connect 21 0 23 1;
#X connect 23 0 24 0;
#X connect 28 1 8 0;
#X coords 0 0 10 10 0 0 0;
