#N canvas 858 468 1270 1019 36;
#X obj 345 345 + 1;
#X obj 84 -163 bng 43 250 50 0 empty empty empty 0 -22 0 36 #fcfcfc #000000 #000000;
#X obj 229 259 until;
#X obj 230 -14 - \$1;
#X obj 229 343 f \$1;
#X obj 228 -196 loadbang;
#X obj 228 -120 f \$2;
#X obj 424 643 outlet;
#X obj 305 107 > 0;
#X obj 229 178 spigot;
#X obj 230 48 t f f f;
#X obj 381 108 < 0;
#X obj 381 256 print first arg needs to be smaller than second;
#X obj 229 568 f \$1;
#X obj 381 181 select 1;
#X obj 229 -276 inlet;
#X obj 229 435 select \$2;
#X obj 228 -69 + 1;
#X obj 229 510 t b b;
#X obj 336 566 f \$2;
#X obj 547 -247 inlet;
#X obj 547 -175 t f f f;
#X obj 873 -211 inlet;
#X obj 873 -162 t f f f;
#X connect 0 0 4 1;
#X connect 1 0 6 0;
#X connect 2 0 4 0;
#X connect 3 0 10 0;
#X connect 4 0 0 0;
#X connect 4 0 16 0;
#X connect 5 0 6 0;
#X connect 6 0 17 0;
#X connect 8 0 9 1;
#X connect 9 0 2 0;
#X connect 10 0 9 0;
#X connect 10 1 8 0;
#X connect 10 2 11 0;
#X connect 11 0 14 0;
#X connect 13 0 4 1;
#X connect 14 0 12 0;
#X connect 15 0 6 0;
#X connect 16 0 18 0;
#X connect 16 1 7 0;
#X connect 17 0 3 0;
#X connect 18 0 13 0;
#X connect 18 1 19 0;
#X connect 19 0 7 0;
#X connect 20 0 21 0;
#X connect 21 0 3 1;
#X connect 21 1 4 1;
#X connect 21 2 13 1;
#X connect 22 0 23 0;
#X connect 23 0 6 1;
#X connect 23 1 16 1;
#X connect 23 2 19 1;
